# xmcd
#
# Track frame offsets:
#	150
#	11354
#	21959
#	32542
#	44008
#	54595
#	67817
#	76525
#	86217
#	99080
#	109444
#	123544
#	133652
#	146834
#	158865
#	169694
#	179898
#	192706
#	203339
#	215046
#
# Disc length: 3019 seconds
#
# Revision: 0
# Processed by: cddbd v1.5.2PL0 Copyright (c) Steve Scherf et al.
# Submitted via: EZCDAudioConverter 8.0.2.1
#
DISCID=1d0bc914
DTITLE=Various Artist - True Hits 60's CD1
DYEAR=1900
DGENRE=
TTITLE0=The Trashmen - Surfin' Bird (El Surf Del Pájaro)
TTITLE1=Paul Anka - Diana
TTITLE2=Ricky Nelson - Hello Mary Lou
TTITLE3=Johnny Tillotson - Poetry In Motion (Poesía En Movimiento)
TTITLE4=Brenton Wood - Gimme A Little Sing
TTITLE5=The Turtles - Happy Together (Juntos Y Felices)
TTITLE6=The Box Tops - The Letter
TTITLE7=Bill Deal - I've Been Hurt (Herido)
TTITLE8=The Archies - Sugar, Sugar (Azúcar, Azúcar)
TTITLE9=1910 Fruitgum Company - Simon Say (El Juego De Simon)
TTITLE10=The Mccoys - Hang On Sloopy (Es Lupe)
TTITLE11=Freddy Cannon - Tallahassee Lassie
TTITLE12=Tommy James and The Shondells - Hanky Panky
TTITLE13=Chubby Checker - The Twist
TTITLE14=Sam the Sham and The Pharaohs - Wooly Bully (Bule, Bule)
TTITLE15=Isley Brothers - Twist and Shout
TTITLE16=Tommy James and The Shondells - Mony, Mony
TTITLE17=Del Shannon - Runaway (Se Fué)
TTITLE18=Ernie K-Doe - Mother In Law (La Suegra)
TTITLE19=Terry Stafford - Suspicion (Sospechas)
EXTD=
EXTT0=
EXTT1=
EXTT2=
EXTT3=
EXTT4=
EXTT5=
EXTT6=
EXTT7=
EXTT8=
EXTT9=
EXTT10=
EXTT11=
EXTT12=
EXTT13=
EXTT14=
EXTT15=
EXTT16=
EXTT17=
EXTT18=
EXTT19=
PLAYORDER=
